<svg id="Capa_1" data-name="Capa 1" xmlns="http://www.w3.org/2000/svg" xmlns:xlink="http://www.w3.org/1999/xlink" viewBox="0 0 1345.8 421.5"><defs><style>.cls-1,.cls-9{fill:none;}.cls-2{clip-path:url(#clip-path);}.cls-3{clip-path:url(#clip-path-2);}.cls-4{clip-path:url(#clip-path-3);}.cls-5{clip-path:url(#clip-path-4);}.cls-6{clip-path:url(#clip-path-5);}.cls-7,.cls-8{fill:#fff;}.cls-8{font-size:11.95px;font-family:Montserrat-BoldItalic, Montserrat;font-weight:700;font-style:italic;}.cls-9{stroke:#fff;stroke-miterlimit:10;stroke-width:3px;}</style><clipPath id="clip-path" transform="translate(0 85)"><rect class="cls-1" x="-0.5" y="-2.14" width="1342" height="154.14"/></clipPath><clipPath id="clip-path-2" transform="translate(0 85)"><rect class="cls-1" x="623.64" width="348.86" height="152"/></clipPath><clipPath id="clip-path-3" transform="translate(0 85)"><rect class="cls-1" x="294.5" width="338" height="152"/></clipPath><clipPath id="clip-path-4" transform="translate(0 85)"><rect class="cls-1" x="-0.5" width="338" height="152"/></clipPath><clipPath id="clip-path-5" transform="translate(0 85)"><rect class="cls-1" x="941.5" width="400" height="152"/></clipPath><image id="image" width="450" height="450" xlink:href="../../PAGINA%20WEB%20FM/69983762-cielo-estrellado-incons%C3%BAtil-de-la-textura.jpg"/></defs><title>cabecera</title><g class="cls-2"><g class="cls-3"><use transform="translate(624.16 84) scale(0.77 0.75)" xlink:href="#image"/></g><g class="cls-4"><use transform="translate(295 -1) scale(0.75)" xlink:href="#image"/></g><g class="cls-5"><use transform="translate(0 -1) scale(0.75)" xlink:href="#image"/></g><g class="cls-6"><use transform="translate(942.06 -1) scale(0.89 0.75)" xlink:href="#image"/></g><polyline class="cls-7" points="160.5 201 151.15 201 151.22 174 128.34 174 128.33 164 151.5 164 151.5 150.84 97.34 151.17 97.17 142 165.94 142 182.89 179.09 199.96 142 214.5 142 214.5 201 205.27 201 205.15 154.68 185.44 195.48 180.21 195.46 160.63 154.37 160.66 200.79"/><text class="cls-8" transform="translate(132.9 215.85)">DESIGN</text><line class="cls-9" x1="78.5" y1="211.5" x2="123.5" y2="211.5"/><line class="cls-9" x1="192.5" y1="211.5" x2="236.5" y2="211.5"/><image width="1600" height="1554" transform="translate(1123.79 0) rotate(24.54) scale(0.15)" xlink:href="../../PAGINA%20WEB%20FM/nave%20blanca.png"/></g></svg>